2014029_C5_05_grf
version=1
nRows=12
nColumns=19
inDegrees=no
endheader
time	ground_force_1_vx	ground_force_1_vy	ground_force_1_vz	ground_force_1_px	ground_force_1_py	ground_force_1_pz	ground_force_1_mx	ground_force_1_my	ground_force_1_mz	ground_force_2_vx	ground_force_2_vy	ground_force_2_vz	ground_force_2_px	ground_force_2_py	ground_force_2_pz	ground_force_2_mx	ground_force_2_my	ground_force_2_mz
      0.86000000	    -49.47803169	    715.88732302	     27.79129706	     -0.14788623	     -0.00200000	      0.15838314	     -0.00000000	      0.05584269	     -0.00000000	      0.00000000	      0.00000000	      0.00000000	      0.00000000	      0.00000000	      0.00000000	      0.00000000	      0.00000000	      0.00000000
      0.86100000	    -49.15416986	    714.80788291	     27.61433739	     -0.14729993	     -0.00200000	      0.15833059	      0.00000000	      0.03830329	      0.00000000	      0.00000000	      0.00000000	      0.00000000	      0.00000000	      0.00000000	      0.00000000	      0.00000000	      0.00000000	      0.00000000
      0.86200000	    -48.83277789	    713.75787258	     27.43266709	     -0.14671406	     -0.00200000	      0.15827857	      0.00000000	      0.02065332	      0.00000000	      0.00000000	      0.00000000	      0.00000000	      0.00000000	      0.00000000	      0.00000000	      0.00000000	      0.00000000	      0.00000000
      0.86300000	    -48.51444811	    712.74433285	     27.24550012	     -0.14612881	     -0.00200000	      0.15822711	      0.00000000	      0.00288213	      0.00000000	      0.00000000	      0.00000000	      0.00000000	      0.00000000	      0.00000000	      0.00000000	      0.00000000	      0.00000000	      0.00000000
      0.86400000	    -48.19855466	    711.75962687	     27.05427632	     -0.14554402	     -0.00200000	      0.15817607	      0.00000000	     -0.01496978	     -0.00000000	      0.00000000	      0.00000000	      0.00000000	      0.00000000	      0.00000000	      0.00000000	      0.00000000	      0.00000000	      0.00000000
      0.86500000	    -47.88568430	    710.81057191	     26.85843967	     -0.14495987	     -0.00200000	      0.15812547	      0.00000000	     -0.03290379	      0.00000000	      0.00000000	      0.00000000	      0.00000000	      0.00000000	      0.00000000	      0.00000000	      0.00000000	      0.00000000	      0.00000000
      0.86600000	    -47.57521674	    709.88960564	     26.65930055	     -0.14437621	     -0.00200000	      0.15807515	      0.00000000	     -0.05088923	      0.00000000	      0.00000000	      0.00000000	      0.00000000	      0.00000000	      0.00000000	      0.00000000	      0.00000000	      0.00000000	      0.00000000
      0.86700000	    -47.26770148	    709.00328457	     26.45654697	     -0.14379320	     -0.00200000	      0.15802514	      0.00000000	     -0.06891894	      0.00000000	      0.00000000	      0.00000000	      0.00000000	      0.00000000	      0.00000000	      0.00000000	      0.00000000	      0.00000000	      0.00000000
      0.86800000	    -46.96251452	    708.14430714	     26.25133097	     -0.14321072	     -0.00200000	      0.15797534	     -0.00000000	     -0.08696837	     -0.00000000	      0.00000000	      0.00000000	      0.00000000	      0.00000000	      0.00000000	      0.00000000	      0.00000000	      0.00000000	      0.00000000
      0.86900000	    -46.66016996	    707.31893182	     26.04359854	     -0.14262892	     -0.00200000	      0.15792574	      0.00000000	     -0.10501916	      0.00000000	      0.00000000	      0.00000000	      0.00000000	      0.00000000	      0.00000000	      0.00000000	      0.00000000	      0.00000000	      0.00000000
      0.87000000	    -46.36004567	    706.52008057	     25.83432198	     -0.14204767	     -0.00200000	      0.15787625	      0.00000000	     -0.12305159	     -0.00000000	      0.00000000	      0.00000000	      0.00000000	      0.00000000	      0.00000000	      0.00000000	      0.00000000	      0.00000000	      0.00000000
      0.87100000	    -46.06263153	    705.75382560	     25.62371921	     -0.14146714	     -0.00200000	      0.15782684	      0.00000000	     -0.14103609	      0.00000000	      0.00000000	      0.00000000	      0.00000000	      0.00000000	      0.00000000	      0.00000000	      0.00000000	      0.00000000	      0.00000000
